<svg xmlns="http://www.w3.org/2000/svg" version="1.1" xmlns:xlink="http://www.w3.org/1999/xlink" xmlns:svgjs="http://svgjs.com/svgjs" width="1900" height="1100" preserveAspectRatio="none" viewBox="0 0 1900 1100"><g mask="url(&quot;#SvgjsMask1019&quot;)" fill="none"><rect width="1900" height="1100" x="0" y="0" fill="rgba(52, 61, 80, 1)"></rect><path d="M0,687.253C127.416,673.163,228.835,590.108,346.41,539.025C491.215,476.111,717.347,500.608,771.191,352.191C826.651,199.319,618.006,73.704,571.789,-82.211C535.071,-206.081,609.529,-357.476,530.526,-459.704C451.317,-562.199,294.873,-546.835,174.926,-595.743C37.602,-651.737,-78.034,-783.714,-225.497,-767.972C-376.647,-751.836,-507.538,-639.533,-592.925,-513.772C-674.157,-394.131,-679.959,-242.451,-680.49,-97.84C-680.964,31.276,-642.801,151.835,-595.81,272.097C-546.18,399.112,-511.299,543.541,-399.414,621.501C-286.42,700.234,-136.885,702.39,0,687.253" fill="#2a3140"></path><path d="M1900 1649.0520000000001C2001.085 1656.743 2060.409 1534.637 2135.685 1466.734 2198.362 1410.195 2258.5860000000002 1355.637 2304.088 1284.541 2355.989 1203.445 2427.773 1121.305 2418.067 1025.513 2408.313 929.2470000000001 2319.996 864.035 2254.284 793.012 2190.669 724.256 2130.762 646.519 2041.407 618.413 1951.334 590.081 1849.371 597.332 1764.637 638.9970000000001 1685.325 677.995 1650.62 767.154 1596.62 837.12 1546.1399999999999 902.525 1479.469 956.682 1457.892 1036.435 1434.868 1121.537 1428.666 1218.764 1472.704 1295.1390000000001 1515.865 1369.992 1619.745 1377.425 1686.289 1432.541 1766.001 1498.563 1796.795 1641.2 1900 1649.0520000000001" fill="#3e4960"></path></g><defs><mask id="SvgjsMask1019"><rect width="1900" height="1100" fill="#ffffff"></rect></mask></defs></svg>